<?xml version="1.0" encoding="UTF-8" standalone="no"?>
<svg
   id="ff13122b-c9a2-4eb3-994d-202711f70fc9"
   data-name="Layer 1"
   width="746"
   height="426.79718"
   viewBox="0 0 746 426.7972"
   version="1.1"
   sodipodi:docname="Illustrator.svg"
   inkscape:version="1.1 (c68e22c387, 2021-05-23)"
   xmlns:inkscape="http://www.inkscape.org/namespaces/inkscape"
   xmlns:sodipodi="http://sodipodi.sourceforge.net/DTD/sodipodi-0.dtd"
   xmlns="http://www.w3.org/2000/svg"
   xmlns:svg="http://www.w3.org/2000/svg">
  <defs
     id="defs93" />
  <sodipodi:namedview
     id="namedview91"
     pagecolor="#505050"
     bordercolor="#eeeeee"
     borderopacity="1"
     inkscape:pageshadow="0"
     inkscape:pageopacity="0"
     inkscape:pagecheckerboard="0"
     showgrid="false"
     inkscape:zoom="1.1672668"
     inkscape:cx="204.32347"
     inkscape:cy="226.16937"
     inkscape:window-width="1920"
     inkscape:window-height="1050"
     inkscape:window-x="-11"
     inkscape:window-y="-11"
     inkscape:window-maximized="1"
     inkscape:current-layer="ff13122b-c9a2-4eb3-994d-202711f70fc9"
     showguides="true" />
  <path
     d="m 680.60236,426.0774 v -72.34 c 0,0 28.19164,51.28597 0,72.34 z"
     fill="#f1f1f1"
     id="path2"
     style="fill:#ff6600" />
  <path
     d="m 682.34383,426.06468 -53.28962,-48.92125 c 0,0 56.84519,13.91553 53.28962,48.92125 z"
     fill="#f1f1f1"
     id="path4"
     style="fill:#ff6600" />
  <path
     d="m 133.69816,2.6479522 3.19769,-2.63737999 a 0.05669092,0.08000028 0 0 1 0.0572,0.13814 l -3.19769,2.63737999 a 0.05669096,0.08000033 0 0 1 -0.0572,-0.13814 z"
     fill="#ccc"
     id="path14"
     style="fill:#ffffff;stroke-width:0.0173165" />
  <path
     d="m 391.59271,164.63319 a 8.67233,8.67233 0 0 1 0.872,1.051 l 40.84857,-0.99946 4.76541,-8.70792 14.08178,5.47419 -6.93809,16.23551 a 6.59134,6.59134 0 0 1 -6.8516,3.95362 l -46.15126,-5.57517 a 8.64875,8.64875 0 1 1 -0.62683,-11.43176 z"
     fill="#ffb7b7"
     id="path32" />
  <polygon
     points="504.932,655.449 524.755,655.45 524.753,707.256 511.322,707.256 "
     fill="#ffb7b7"
     id="polygon34"
     transform="translate(0,-294.54606)" />
  <path
     d="m 528.17806,425.72992 -43.308,-0.002 v -0.54736 a 16.85758,16.85758 0 0 1 16.85668,-16.8564 h 10e-4 l 26.451,10e-4 z"
     fill="#2f2e41"
     id="path36" />
  <polygon
     points="404.916,651.529 423.145,659.317 402.792,706.958 390.441,701.681 "
     fill="#ffb7b7"
     id="polygon38"
     transform="translate(0,-294.54606)" />
  <path
     d="m 400.82776,425.72992 -39.826,-17.014 0.21518,-0.50375 a 16.85759,16.85759 0 0 1 22.12325,-8.87963 l 10e-4,4.2e-4 24.3243,10.39164 z"
     fill="#2f2e41"
     id="path40" />
  <polygon
     points="486.887,489.179 516.593,492.358 507.849,468.459 459.468,470.402 458.496,486.141 "
     fill="#ffb7b7"
     id="polygon42"
     transform="translate(0,-294.54606)" />
  <path
     d="m 457.60236,191.79718 -11.02912,-76.88748 19.11648,-6.26508 5.61475,-7.7001 27.32289,1.61686 4.01137,8.98546 14.56924,6.88423 -2.239,41.58174 1.63341,34.78437 z"
     fill="#2f2e41"
     id="path44"
     style="fill:#ff6600" />
  <path
     d="m 450.66064,171.19284 -19.44456,-7.77975 0.0829,-0.346 c 0.0835,-0.3488 8.35927,-34.93247 9.45817,-40.48989 1.14475,-5.79 5.3269,-7.39073 5.50452,-7.4559 l 0.12974,-0.0479 7.69528,2.34222 3.37955,26.55448 z"
     fill="#2f2e41"
     id="path46"
     style="fill:#ff7f2a" />
  <path
     d="m 412.79576,403.30662 -25.88371,-5.30948 41.36969,-114.1538 14.15862,-38.93618 c 0,0 8.9802,-31.21887 13.03747,-43.30013 l 2.44851,-16.21028 57.96181,6.41562 c 0,0 16.18859,23.77448 11.27061,62.52545 l 2.22432,145.65037 -25.88371,1.32737 -21.68037,-146.89558 -38.05126,80.5271 c 0,0 -11.99335,34.36378 -20.57424,41.81214 z"
     fill="#2f2e41"
     id="path48"
     style="fill:#ff6600" />
  <path
     d="m 492.64415,197.21856 a 8.67278,8.67278 0 0 1 1.36357,0.0751 l 27.04038,-30.63372 -3.14545,-9.415 13.58853,-6.60419 7.18819,16.12634 a 6.59137,6.59137 0 0 1 -1.75929,7.71237 l -35.46688,30.052 a 8.64875,8.64875 0 1 1 -8.80905,-7.31289 z"
     fill="#ffb7b7"
     id="path50" />
  <path
     d="m 518.8896,169.64116 -11.2798,-26.53276 4.39939,-18.48144 4.74015,-5.9887 a 2.73032,2.73032 0 0 1 2.19377,0.0205 c 1.74821,0.70363 3.23693,2.86 4.42494,6.40951 l 10.57114,30.11085 z"
     fill="#2f2e41"
     id="path52"
     style="fill:#ff7f2a" />
  <path
     d="m 460.36746,91.112892 v -20.00321 a 26.8043,26.8043 0 0 1 53.6086,0 v 20.00321 a 3.60464,3.60464 0 0 1 -3.60058,3.60058 H 463.968 a 3.60463,3.60463 0 0 1 -3.60054,-3.60058 z"
     fill="#2f2e41"
     id="path54" />
  <circle
     cx="481.66376"
     cy="74.595848"
     r="19.65197"
     fill="#ffb7b7"
     id="circle56" />
  <path
     d="m 454.0262,72.709942 a 21.22738,21.22738 0 0 1 21.20341,-21.2034 h 4.00083 a 21.22721,21.22721 0 0 1 21.20321,21.2034 v 0.40006 H 491.979 l -2.88366,-8.07473 -0.57666,8.07473 h -4.36948 l -1.45492,-4.07409 -0.29106,4.07409 h -28.377 z"
     fill="#2f2e41"
     id="path58" />
  <path
     d="m 479.72972,96.962862 a 3.54728,3.54728 0 0 1 -0.28188,-3.76623 c 4.23955,-8.06379 10.17546,-22.96384 2.29646,-32.15282 l -0.5663,-0.66026 h 22.87359 v 34.34145 l -20.77892,3.66621 a 3.67755,3.67755 0 0 1 -0.63721,0.0563 3.58611,3.58611 0 0 1 -2.90574,-1.48461 z"
     fill="#2f2e41"
     id="path60" />
  <polygon
     points="247.551,655.523 229.636,649.121 212.904,695.94 225.042,700.278 "
     fill="#9f616a"
     id="polygon62"
     transform="translate(0,-294.54606)" />
  <path
     d="m 205.60236,412.0541 5.62164,-15.7298 23.90478,8.54334 a 16.197,16.197 0 0 1 9.79011,20.67889 l -0.17712,0.49491 z"
     fill="#2f2e41"
     id="path64" />
  <polygon
     points="310.859,658.226 291.834,658.227 291.836,707.946 304.726,707.945 "
     fill="#9f616a"
     id="polygon66"
     transform="translate(0,-294.54606)" />
  <path
     d="m 288.54791,409.19143 25.3854,-0.001 h 10e-4 a 16.1777,16.1777 0 0 1 16.178,16.17747 v 0.52571 l -41.56364,0.002 z"
     fill="#2f2e41"
     id="path68" />
  <path
     d="m 262.45887,95.754212 5.60594,-11.07722 c 0,0 20.884,5.23229 22.78254,17.336098 z"
     fill="#f1f1f1"
     id="path70" />
  <polygon
     points="214.093,673.622 238.276,683.085 279.282,613.691 284.539,594.765 287.693,693.599 309.503,692.937 319.502,600.65 303.464,514.857 239.328,516.96 254.573,602.034 "
     fill="#2f2e41"
     id="polygon72"
     transform="translate(0,-294.54606)" />
  <path
     d="m 268.26738,242.5253 c -22.39644,0 -36.61635,-4.28374 -36.93491,-4.35151 l -0.5157,-0.10986 11.66553,-54.08577 0.5252,-49.88931 c 0,-21.14145 13.91444,-36.727998 15.84531,-38.166528 a 9.09551,9.09551 0 0 1 4.83743,-5.94508 c 4.64131,-2.10593 10.313,0.421 10.55173,0.52982 l 17.02328,6.38248 0.0801,0.23616 c 0.2051,0.60478 22.62721,74.213788 22.62721,74.213788 0,0 -1.35707,64.315 -1.83016,66.422 0,-3e-5 -31.43092,4.76381 -43.87501,4.76381 z"
     fill="#3f3d56"
     id="path74" />
  <circle
     cx="285.47681"
     cy="58.180992"
     r="23.008209"
     fill="#9f616a"
     id="circle76" />
  <polygon
     points="306.02,462.65 259.823,432.715 300.076,488.877 "
     opacity="0.2"
     id="polygon78"
     transform="translate(0,-294.54606)" />
  <path
     d="m 386.02352,176.38229 a 9.87366,9.87366 0 0 1 -14.82487,-3.07339 l -34.64668,5.5456 7.506,-16.61679 31.75033,-2.71866 a 9.92718,9.92718 0 0 1 10.21526,16.86324 z"
     fill="#9f616a"
     id="path80" />
  <polygon
     points="361.741,471.983 346.076,472.26 345.842,455.838 358.291,454.617 "
     fill="#f1f1f1"
     id="polygon82"
     transform="translate(0,-294.54606)" />
  <path
     d="m 356.04706,183.48798 -60.96976,-5.42884 -30.78585,-48.96058 -0.0948,-0.4327 a 16.85541,16.85541 0 0 1 31.4666,-11.28612 l 18.072,35.25105 36.47268,5.51312 z"
     fill="#3f3d56"
     id="path84" />
  <path
     d="m 265.87889,78.157392 19.09695,0.68547 c 1.16406,0.0418 4.32334,-12.521 4.7369,-15.12708 a 7.11274,7.11274 0 0 1 7.41971,-5.754 c 1.42953,0.135 5.03429,-2.53568 8.754,-5.69809 7.062,-6.00388 6.69461,-17.28005 -1.063,-22.35333 q -0.318,-0.208 -0.62428,-0.37983 c -4.89391,-2.73917 -10.61888,-3.659 -16.22678,-3.72917 -5.08371,-0.0636 -10.31154,0.57628 -14.79018,2.98249 -8.02926,4.31383 -12.3024,13.74076 -12.67776,22.84774 -0.37536,9.10698 2.5442,18.012 5.85721,26.50324"
     fill="#2f2e41"
     id="path86" />
  <path
     d="M 744.60236,426.79718 H 1 a 1,1 0 0 1 0,-2 h 744 a 1,1 0 0 1 1,1 c 0,0.55224 -0.84539,1 -1.39764,1 z"
     fill="#cbcbcb"
     id="path88"
     style="fill:#ff6600" />
</svg>
